<?xml version="1.0" encoding="UTF-8" standalone="no" ?>
<!DOCTYPE svg PUBLIC "-//W3C//DTD SVG 1.1//EN" "http://www.w3.org/Graphics/SVG/1.1/DTD/svg11.dtd">
<svg xmlns="http://www.w3.org/2000/svg" xmlns:xlink="http://www.w3.org/1999/xlink" version="1.1" width="1080" height="1080" viewBox="0 0 1080 1080" xml:space="preserve">
<desc>Created with Fabric.js 5.2.4</desc>
<defs>
</defs>
<rect x="0" y="0" width="100%" height="100%" fill="transparent"></rect>
<g transform="matrix(1 0 0 1 540 540)" id="c81194c5-5250-4f1d-8fdf-d76b48f6bb69"  >
<rect style="stroke: black; stroke-width: 0.8; stroke-dasharray: none; stroke-linecap: butt; stroke-dashoffset: 0; stroke-linejoin: miter; stroke-miterlimit: 4; fill: rgb(255,255,255); fillRule: nonzero; opacity: 1; visibility: hidden;" vector-effect="non-scaling-stroke"  x="-540" y="-540" rx="0" ry="0" width="1080" height="1080" />
</g>
<g transform="matrix(Infinity NaN NaN Infinity 0 0)" id="ecc8bce7-cf10-4d20-bb46-cd918abda09d"  >
</g>
<g transform="matrix(1 0 0 1 1309.82 1316.63)"  >
<rect style="stroke: black; stroke-width: 0.8; stroke-dasharray: none; stroke-linecap: butt; stroke-dashoffset: 0; stroke-linejoin: miter; stroke-miterlimit: 4; fill: rgb(255,255,255); fillRule: nonzero; opacity: 1; visibility: hidden;" vector-effect="non-scaling-stroke"  x="-540" y="-540" rx="0" ry="0" width="1080" height="1080" />
</g>
<g transform="matrix(3.87 0 0 3.87 539.5 539.5)"  >
<path style="stroke: black; stroke-width: 1; stroke-dasharray: none; stroke-linecap: butt; stroke-dashoffset: 0; stroke-linejoin: miter; stroke-miterlimit: 4; fill: rgb(255,255,255); fillRule: nonzero; opacity: 1;" vector-effect="non-scaling-stroke"  transform=" translate(-128, -128)" d="M 175.098958 175.098958 L 104.197917 136.901042 L 104.197917 213.901042 Z M 246 128 L 246 222.697917 C 246 229 243.697917 234.395833 239.098958 239.098958 C 234.5 243.697917 229.098958 246 222.796875 246 L 33.296875 246 C 26.994792 246 21.598958 243.697917 16.895833 239.098958 C 12.197917 234.5 9.994792 229 9.994792 222.697917 L 9.994792 128 C 9.994792 121.697917 12.296875 116.197917 16.895833 111.401042 C 21.494792 106.598958 26.994792 104.203125 33.296875 104.203125 L 222.796875 104.203125 C 229.098958 104.203125 234.494792 106.604167 239.197917 111.401042 C 243.697917 116.203125 246 121.703125 246 128 Z M 198.901042 10 L 198.901042 33.302083 L 57.098958 33.302083 L 57.098958 10 Z M 222.703125 80.901042 L 33.302083 80.901042 L 33.302083 57.098958 L 222.802083 57.098958 L 222.802083 80.901042 Z M 222.703125 80.901042" stroke-linecap="round" />
</g>
</svg>